<svg xmlns="http://www.w3.org/2000/svg" width="2048" height="2048" viewBox="0 0 2048 2048" version="1.1"><path d="M 667.500 559.461 C 648.013 564.491, 633.932 575.838, 625.108 593.623 C 620.815 602.276, 618.998 610.483, 619.015 621.144 C 619.034 633.047, 620.980 641.233, 626.155 651.181 C 629.806 658.198, 634.499 663.566, 667.792 698.795 C 688.430 720.633, 715.482 749.300, 727.907 762.500 C 740.333 775.700, 754.775 790.897, 760 796.271 L 769.500 806.041 814.474 761.026 L 859.448 716.011 853.906 710.255 C 843.737 699.696, 751.804 602.407, 737 586.539 C 721.410 569.829, 711.551 563.077, 697.540 559.515 C 690.340 557.685, 674.491 557.656, 667.500 559.461 M 1350 559.550 C 1339.291 562.538, 1329.829 567.835, 1322 575.226 C 1320.075 577.044, 1312.200 585.272, 1304.500 593.512 C 1296.800 601.751, 1286.210 612.994, 1280.966 618.496 C 1275.723 623.998, 1267.623 632.545, 1262.966 637.489 C 1258.310 642.432, 1250.405 650.757, 1245.399 655.989 C 1225.229 677.068, 1189.485 715.149, 1189.255 715.803 C 1189.120 716.186, 1209.166 736.650, 1233.803 761.278 L 1278.596 806.055 1288.548 795.760 C 1294.022 790.098, 1305.012 778.498, 1312.971 769.982 C 1320.931 761.467, 1331.552 750.225, 1336.575 745 C 1357.541 723.189, 1413.611 663.508, 1416.298 660.142 C 1430.489 642.368, 1433.233 614.594, 1422.887 593.457 C 1415.238 577.830, 1402.307 566.715, 1384.500 560.462 C 1377.486 557.999, 1357.456 557.470, 1350 559.550 M 944 1294.500 L 944 1490 1024 1490 L 1104 1490 1104 1294.500 L 1104 1099 1024 1099 L 944 1099 944 1294.500" stroke="none" fill="#ffffff" fill-rule="evenodd"/><path d="M 832.515 780.985 L 787.539 825.970 793.019 831.664 C 796.034 834.796, 798.950 837.882, 799.500 838.523 C 800.050 839.164, 807.459 847.001, 815.964 855.939 C 824.470 864.876, 832.123 872.989, 832.972 873.968 C 833.821 874.947, 841.937 883.545, 851.008 893.074 C 876.696 920.062, 883.421 927.161, 884.500 928.430 C 885.050 929.076, 889.328 933.632, 894.006 938.553 C 898.684 943.474, 909.034 954.467, 917.006 962.982 C 924.978 971.496, 936.051 983.196, 941.613 988.982 C 947.175 994.767, 953.250 1001.262, 955.113 1003.415 L 958.500 1007.331 958.789 1039.665 L 959.079 1072 1023.988 1072 L 1088.897 1072 1089.199 1039.646 L 1089.500 1007.293 1093.405 1002.896 C 1095.553 1000.478, 1101.628 993.990, 1106.905 988.478 C 1120.509 974.269, 1144.999 948.308, 1147.259 945.700 C 1148.308 944.490, 1152.841 939.648, 1157.333 934.941 C 1161.825 930.233, 1168.875 922.787, 1173 918.392 C 1177.125 913.998, 1187.828 902.713, 1196.785 893.313 C 1205.743 883.914, 1213.859 875.316, 1214.821 874.206 C 1215.784 873.096, 1223.343 865.058, 1231.620 856.344 C 1252.765 834.081, 1259.462 826.891, 1259.751 826.143 C 1259.889 825.786, 1239.729 805.245, 1214.951 780.497 L 1169.900 735.500 1167.886 737.940 C 1166.778 739.282, 1158.818 747.769, 1150.198 756.801 C 1141.577 765.832, 1133.441 774.409, 1132.117 775.861 C 1129.659 778.556, 1107.332 802.249, 1091.954 818.480 C 1087.254 823.441, 1079.169 832, 1073.986 837.500 C 1068.804 843, 1061.135 851.100, 1056.943 855.500 C 1052.752 859.900, 1045.540 867.483, 1040.916 872.351 C 1036.292 877.219, 1031.292 881.832, 1029.804 882.601 C 1026.344 884.391, 1021.647 884.386, 1018.172 882.589 C 1015.941 881.435, 995.962 861.177, 984.554 848.500 C 983.069 846.850, 978.607 842.125, 974.638 838 C 970.669 833.875, 963.645 826.450, 959.029 821.500 C 954.413 816.550, 946.555 808.221, 941.568 802.991 C 936.581 797.761, 928.914 789.661, 924.531 784.991 C 916.595 776.535, 906.285 765.664, 887.760 746.222 C 882.403 740.600, 877.901 736, 877.756 736 C 877.611 736, 857.252 756.243, 832.515 780.985 M 713.250 1214.662 C 712.262 1215.061, 712 1235.286, 712 1311.083 L 712 1407 813.883 1407 L 915.767 1407 916.370 1404.750 C 916.701 1403.513, 916.979 1360.553, 916.986 1309.285 C 917 1218.143, 916.957 1216.047, 915.066 1215.035 C 913.098 1213.982, 715.839 1213.618, 713.250 1214.662 M 1132.750 1215.059 C 1131.103 1216.038, 1131.001 1221.592, 1131.014 1309.300 C 1131.021 1360.560, 1131.299 1403.513, 1131.630 1404.750 C 1132.231 1406.992, 1132.309 1407, 1153 1407 C 1173.695 1407, 1173.769 1406.992, 1174.355 1404.750 C 1174.679 1403.513, 1174.962 1360.366, 1174.985 1308.870 C 1175.025 1215.243, 1175.025 1215.240, 1172.971 1214.703 C 1169.081 1213.685, 1134.546 1213.991, 1132.750 1215.059" stroke="none" fill="#f6eb3b" fill-rule="evenodd"/><path d="M 443.500 263.533 C 425.979 266.051, 410.732 269.758, 411.668 271.273 C 412.030 271.857, 411.826 272.010, 411.200 271.624 C 409.783 270.748, 404.852 271.952, 405.508 273.013 C 405.780 273.453, 405.169 273.596, 404.150 273.329 C 403.132 273.063, 401.610 273.533, 400.768 274.375 C 399.927 275.216, 399.019 275.685, 398.751 275.417 C 397.884 274.551, 388.903 278.567, 389.715 279.458 C 390.147 279.933, 389.978 280.022, 389.340 279.657 C 388.702 279.292, 387.427 279.283, 386.506 279.636 C 385.159 280.153, 385.093 280.459, 386.166 281.205 C 387.091 281.847, 386.840 281.946, 385.347 281.529 C 383.927 281.132, 380.691 282.208, 375.847 284.688 C 367.772 288.821, 365.736 290.363, 366.798 291.541 C 367.184 291.970, 366.938 291.998, 366.252 291.603 C 365.566 291.208, 363.541 291.693, 361.752 292.682 C 356.402 295.639, 355.761 296.234, 357.059 297.037 C 357.709 297.438, 357.113 297.750, 355.698 297.750 C 354.315 297.750, 352.579 298.247, 351.842 298.853 C 351.104 299.460, 346.900 302.740, 342.500 306.141 C 327.632 317.635, 307.174 338.854, 308.653 341.247 C 309.032 341.861, 308.836 342.017, 308.188 341.616 C 306.783 340.748, 300.788 348.815, 301.679 350.375 C 302.032 350.994, 301.970 351.184, 301.541 350.798 C 301.113 350.411, 300.253 350.648, 299.631 351.325 C 297.890 353.217, 294 358.851, 294 359.479 C 294 359.788, 292.835 361.884, 291.412 364.139 C 285.427 373.620, 280.944 383.251, 281.533 385.359 C 282.008 387.059, 281.915 387.191, 281.081 386 C 280.038 384.511, 279.880 384.751, 279.600 388.250 C 279.545 388.938, 278.912 390.121, 278.192 390.879 C 277.473 391.637, 277.131 392.898, 277.431 393.681 C 277.731 394.464, 277.604 394.873, 277.148 394.591 C 275.908 393.825, 270.806 409.285, 271.551 411.554 C 272.087 413.189, 272.001 413.260, 271.016 412 C 270.056 410.772, 269.922 410.992, 270.277 413.220 C 270.516 414.716, 270.364 415.725, 269.940 415.463 C 269.239 415.030, 268.503 417.587, 265.903 429.500 C 261.854 448.048, 262 425.959, 262.009 1021.436 C 262.018 1614.645, 261.895 1596.074, 265.929 1616.771 C 273.411 1655.166, 293.741 1693.902, 321.166 1722.019 C 349.247 1750.807, 388.279 1772.602, 426.820 1781.014 C 450.970 1786.284, 416.908 1786, 1024 1786 C 1515.965 1786, 1588.110 1785.813, 1599.250 1784.510 C 1637.529 1780.032, 1671.410 1766.508, 1703 1743.095 C 1712.245 1736.244, 1730.230 1718.950, 1738.131 1709.314 C 1764.120 1677.620, 1780.948 1636.622, 1784.991 1595.144 C 1786.386 1580.824, 1786.386 467.176, 1784.991 452.856 C 1780.131 402.996, 1757.594 355.867, 1722.019 321.166 C 1694.230 294.061, 1654.435 273.079, 1617.478 266.048 C 1595.504 261.868, 1617.426 262.012, 1020 262.129 C 561.640 262.219, 450.769 262.489, 443.500 263.533 M 664.113 532.479 C 644.575 536.918, 629.870 545.088, 616.958 558.681 C 606.032 570.183, 598.350 583.634, 594.502 598 C 591.925 607.620, 591.343 629.532, 593.401 639.482 C 596.909 656.446, 606.354 673.684, 619.719 687.519 C 626.127 694.152, 641.386 710.260, 676.968 747.954 C 685.511 757.003, 700.172 772.528, 709.550 782.454 C 718.927 792.379, 728.979 803.060, 731.886 806.188 L 737.173 811.876 732.837 812.961 C 715.237 817.361, 704.297 821.320, 690.270 828.364 C 648.602 849.291, 615.926 887.114, 601.033 931.660 C 596.957 943.851, 596.041 947.642, 593.462 963 C 591.335 975.666, 591.308 1226.276, 593.432 1237.162 C 599.893 1270.268, 621.386 1298.396, 651.500 1313.151 C 660.140 1317.384, 672.643 1321.440, 680.250 1322.476 L 685 1323.123 685 1373.413 L 685 1423.704 687.270 1427.102 C 692.202 1434.485, 683.736 1433.997, 806.750 1433.998 L 917 1434 917 1470.032 C 917 1509.947, 917.188 1511.315, 923.190 1514.974 C 926.450 1516.962, 927.968 1516.993, 1024 1516.993 C 1120.032 1516.993, 1121.550 1516.962, 1124.810 1514.974 C 1130.811 1511.316, 1131 1509.942, 1131 1470.085 L 1131 1434.107 1161.750 1433.803 C 1192.112 1433.504, 1192.541 1433.471, 1195.765 1431.171 C 1202.166 1426.605, 1202 1428.157, 1202 1373.050 L 1202 1323 1204.250 1322.984 C 1207.504 1322.962, 1223.650 1319.442, 1229.500 1317.481 C 1245.050 1312.266, 1263.028 1301.454, 1275.470 1289.835 C 1295.478 1271.149, 1307.827 1249.197, 1314.077 1221.209 C 1315.985 1212.663, 1316.333 1207.066, 1316.987 1174.500 C 1317.686 1139.664, 1317.858 1137.178, 1319.930 1132 C 1323.314 1123.540, 1329.849 1115.034, 1337.216 1109.500 C 1346.975 1102.169, 1353.298 1100.089, 1370.747 1098.470 C 1395.213 1096.200, 1411.006 1089.193, 1425.069 1074.370 C 1436.099 1062.744, 1443.781 1046.998, 1445.918 1031.637 C 1447.241 1022.125, 1447.301 976.119, 1446.007 962.826 C 1441.586 917.393, 1419.326 876.071, 1383.500 846.796 C 1372.565 837.860, 1364.617 832.850, 1350.500 825.993 C 1337.659 819.756, 1332.806 817.926, 1321 814.870 C 1316.875 813.802, 1312.880 812.712, 1312.122 812.446 C 1310.611 811.918, 1310.877 811.615, 1338.439 782.500 C 1347.811 772.600, 1358.859 760.906, 1362.990 756.514 C 1367.120 752.121, 1374.136 744.696, 1378.580 740.014 C 1383.024 735.331, 1390.449 727.467, 1395.080 722.539 C 1399.711 717.610, 1407.402 709.510, 1412.172 704.539 C 1416.941 699.567, 1421.813 694.375, 1422.998 693 C 1424.183 691.625, 1427.494 688.025, 1430.355 685 C 1448.076 666.266, 1456 646.645, 1456 621.500 C 1456 597.168, 1448.125 576.978, 1431.850 559.583 C 1414.998 541.571, 1394.968 532.329, 1370.500 531.275 C 1347.570 530.288, 1329.118 535.643, 1312.221 548.189 C 1305.723 553.014, 1301.158 557.393, 1287.923 571.500 C 1282.247 577.550, 1273.979 586.337, 1269.551 591.026 C 1265.123 595.716, 1254.975 606.500, 1247 614.991 C 1227.645 635.599, 1200.745 663.984, 1186.340 679 C 1182.382 683.125, 1178.179 687.625, 1176.998 689 C 1175.817 690.375, 1172.055 694.425, 1168.638 698 C 1159.041 708.040, 1127.111 741.830, 1111 758.996 C 1094.334 776.752, 1083.189 788.520, 1070.269 802 C 1065.261 807.225, 1060.303 812.494, 1059.251 813.708 C 1058.199 814.922, 1049.829 823.764, 1040.651 833.357 L 1023.964 850.798 1015.258 841.649 C 995.711 821.107, 992.413 817.629, 990.500 815.543 C 989.400 814.343, 984.217 808.893, 978.982 803.431 C 973.747 797.969, 962.722 786.314, 954.482 777.531 C 946.242 768.747, 935.675 757.549, 931 752.644 C 926.325 747.740, 922.050 743.203, 921.500 742.561 C 920.950 741.920, 916.673 737.368, 911.995 732.447 C 907.318 727.526, 896.520 716.075, 888 707 C 875.289 693.461, 857.175 674.257, 855 672.015 C 854.725 671.732, 850.018 666.775, 844.540 661 C 839.062 655.225, 830.287 645.986, 825.040 640.469 C 819.793 634.952, 812.125 626.829, 808 622.418 C 803.875 618.007, 793.708 607.221, 785.407 598.449 C 777.105 589.677, 764.505 576.324, 757.407 568.775 C 742.084 552.481, 733.327 545.268, 722.499 540.022 C 709.408 533.679, 701.574 531.883, 685 531.427 C 674.659 531.143, 668.668 531.445, 664.113 532.479 M 744.282 838.088 C 683.633 849.366, 635.874 895.113, 622.129 955.093 C 618.076 972.779, 617.836 982.084, 618.185 1108.500 C 618.518 1229.131, 618.525 1229.523, 620.688 1237.130 C 627.016 1259.390, 642.772 1278.845, 662.500 1288.757 C 668.038 1291.539, 681.192 1296, 683.858 1296 C 684.699 1296, 685.001 1283.002, 685.004 1246.750 C 685.007 1199.667, 685.093 1197.359, 686.960 1194.299 C 691.049 1187.592, 683.340 1188, 805.950 1188 L 917 1188 917 1135.401 C 917 1088.339, 917.176 1082.432, 918.670 1079.283 C 920.595 1075.227, 925.271 1072.009, 929.250 1072.004 L 932 1072 932 1045.146 L 932 1018.292 929.377 1015.396 C 927.934 1013.803, 923.337 1008.900, 919.161 1004.500 C 909.794 994.630, 900.495 984.767, 864.007 946 C 854.948 936.375, 843.662 924.450, 838.926 919.500 C 834.191 914.550, 826.758 906.694, 822.408 902.043 C 805.916 884.406, 781.677 858.753, 770.528 847.134 C 766.113 842.532, 761.905 838.144, 761.179 837.384 C 759.504 835.630, 756.921 835.738, 744.282 838.088 M 1277.927 846.785 C 1267.527 857.541, 1264.405 860.835, 1237 889.954 C 1217.968 910.177, 1213.464 914.942, 1176.480 954 C 1172.053 958.675, 1165.047 966.100, 1160.910 970.500 C 1143.613 988.898, 1134.175 998.899, 1127.878 1005.500 C 1124.206 1009.350, 1120.031 1013.915, 1118.601 1015.644 L 1116 1018.789 1116 1045.394 L 1116 1072 1118.750 1072.004 C 1122.729 1072.009, 1127.405 1075.227, 1129.330 1079.283 C 1130.824 1082.432, 1131 1088.339, 1131 1135.401 L 1131 1188 1161.750 1188.004 C 1190.828 1188.007, 1192.680 1188.117, 1195.810 1190.026 C 1201.993 1193.795, 1202 1193.857, 1202 1247.604 L 1202 1296.272 1206.375 1295.672 C 1214.453 1294.565, 1229.422 1289.084, 1238.883 1283.770 C 1254.938 1274.753, 1270.519 1258.031, 1279.452 1240.232 C 1288.286 1222.630, 1289.141 1217.147, 1289.936 1173 C 1290.609 1135.610, 1290.619 1135.476, 1293.362 1127.208 C 1300.668 1105.191, 1314.929 1088.763, 1335 1079.245 C 1344.237 1074.864, 1352.728 1072.903, 1366.500 1071.970 C 1373.100 1071.522, 1380.300 1070.627, 1382.500 1069.981 C 1394.671 1066.405, 1409.057 1054.552, 1414.242 1043.829 C 1419.528 1032.897, 1420.002 1029.079, 1419.982 997.540 C 1419.961 962.895, 1418.691 952.118, 1412.412 933.275 C 1395.969 883.938, 1353.407 847.341, 1301.575 837.974 C 1295.566 836.888, 1290.133 836, 1289.502 836 C 1288.870 836, 1283.661 840.853, 1277.927 846.785 M 983.750 1490.750 C 1005.888 1490.900, 1042.113 1490.900, 1064.250 1490.750 C 1086.388 1490.600, 1068.275 1490.477, 1024 1490.477 C 979.725 1490.477, 961.613 1490.600, 983.750 1490.750" stroke="none" fill="#35d4b5" fill-rule="evenodd"/><path d="M 0 1024 L 0 2048.001 1024.250 2047.750 L 2048.500 2047.500 2048.750 1023.750 L 2049.001 0 1024.500 0 L 0 0 0 1024 M 0.498 1024.500 C 0.498 1587.700, 0.611 1817.950, 0.750 1536.167 C 0.889 1254.384, 0.889 793.584, 0.750 512.167 C 0.611 230.750, 0.498 461.300, 0.498 1024.500 M 446.500 263.053 C 429.226 265.384, 415.573 268.691, 400.545 274.185 C 389.678 278.157, 368.978 287.589, 368 289.014 C 367.725 289.415, 365.166 290.958, 362.313 292.443 C 359.460 293.929, 356.592 295.787, 355.940 296.572 C 355.288 297.357, 354.341 298, 353.835 298 C 353.329 298, 352.372 298.440, 351.708 298.978 C 351.044 299.517, 346.900 302.740, 342.500 306.141 C 328.508 316.958, 310.922 335.143, 302.020 348 C 300.687 349.925, 299.350 351.725, 299.048 352 C 298.083 352.880, 294 358.900, 294 359.442 C 294 359.729, 292.283 362.785, 290.186 366.232 C 276.588 388.574, 266.789 417.809, 263.003 447.322 C 262.343 452.474, 262.003 648.454, 262.009 1021.322 C 262.018 1614.652, 261.895 1596.073, 265.929 1616.771 C 273.411 1655.166, 293.741 1693.902, 321.166 1722.019 C 349.247 1750.807, 388.279 1772.602, 426.820 1781.014 C 450.970 1786.284, 416.908 1786, 1024 1786 C 1515.965 1786, 1588.110 1785.813, 1599.250 1784.510 C 1637.529 1780.032, 1671.410 1766.508, 1703 1743.095 C 1712.245 1736.244, 1730.230 1718.950, 1738.131 1709.314 C 1764.120 1677.620, 1780.948 1636.622, 1784.991 1595.144 C 1786.386 1580.824, 1786.386 467.176, 1784.991 452.856 C 1780.131 402.996, 1757.594 355.867, 1722.019 321.166 C 1694.230 294.061, 1654.435 273.079, 1617.478 266.048 C 1595.504 261.868, 1617.429 262.011, 1020 262.131 C 707.875 262.193, 449.800 262.608, 446.500 263.053 M 664.113 532.479 C 644.575 536.918, 629.870 545.088, 616.958 558.681 C 606.032 570.183, 598.350 583.634, 594.502 598 C 591.925 607.620, 591.343 629.532, 593.401 639.482 C 596.909 656.446, 606.354 673.684, 619.719 687.519 C 626.127 694.152, 641.386 710.260, 676.968 747.954 C 685.511 757.003, 700.172 772.528, 709.550 782.454 C 718.927 792.379, 728.979 803.060, 731.886 806.188 L 737.173 811.876 732.837 812.961 C 715.237 817.361, 704.297 821.320, 690.270 828.364 C 648.602 849.291, 615.926 887.114, 601.033 931.660 C 596.957 943.851, 596.041 947.642, 593.462 963 C 591.335 975.666, 591.308 1226.276, 593.432 1237.162 C 599.893 1270.268, 621.386 1298.396, 651.500 1313.151 C 660.140 1317.384, 672.643 1321.440, 680.250 1322.476 L 685 1323.123 685 1373.413 L 685 1423.704 687.270 1427.102 C 692.202 1434.485, 683.736 1433.997, 806.750 1433.998 L 917 1434 917 1470.032 C 917 1509.947, 917.188 1511.315, 923.190 1514.974 C 926.450 1516.962, 927.968 1516.993, 1024 1516.993 C 1120.032 1516.993, 1121.550 1516.962, 1124.810 1514.974 C 1130.811 1511.316, 1131 1509.942, 1131 1470.085 L 1131 1434.107 1161.750 1433.803 C 1192.112 1433.504, 1192.541 1433.471, 1195.765 1431.171 C 1202.166 1426.605, 1202 1428.157, 1202 1373.050 L 1202 1323 1204.250 1322.984 C 1207.504 1322.962, 1223.650 1319.442, 1229.500 1317.481 C 1245.050 1312.266, 1263.028 1301.454, 1275.470 1289.835 C 1295.478 1271.149, 1307.827 1249.197, 1314.077 1221.209 C 1315.985 1212.663, 1316.333 1207.066, 1316.987 1174.500 C 1317.686 1139.664, 1317.858 1137.178, 1319.930 1132 C 1323.314 1123.540, 1329.849 1115.034, 1337.216 1109.500 C 1346.975 1102.169, 1353.298 1100.089, 1370.747 1098.470 C 1395.213 1096.200, 1411.006 1089.193, 1425.069 1074.370 C 1436.099 1062.744, 1443.781 1046.998, 1445.918 1031.637 C 1447.241 1022.125, 1447.301 976.119, 1446.007 962.826 C 1441.586 917.393, 1419.326 876.071, 1383.500 846.796 C 1372.565 837.860, 1364.617 832.850, 1350.500 825.993 C 1337.659 819.756, 1332.806 817.926, 1321 814.870 C 1316.875 813.802, 1312.880 812.712, 1312.122 812.446 C 1310.611 811.918, 1310.877 811.615, 1338.439 782.500 C 1347.811 772.600, 1358.859 760.906, 1362.990 756.514 C 1367.120 752.121, 1374.136 744.696, 1378.580 740.014 C 1383.024 735.331, 1390.449 727.467, 1395.080 722.539 C 1399.711 717.610, 1407.402 709.510, 1412.172 704.539 C 1416.941 699.567, 1421.813 694.375, 1422.998 693 C 1424.183 691.625, 1427.494 688.025, 1430.355 685 C 1448.076 666.266, 1456 646.645, 1456 621.500 C 1456 597.168, 1448.125 576.978, 1431.850 559.583 C 1414.998 541.571, 1394.968 532.329, 1370.500 531.275 C 1347.570 530.288, 1329.118 535.643, 1312.221 548.189 C 1305.723 553.014, 1301.158 557.393, 1287.923 571.500 C 1282.247 577.550, 1273.979 586.337, 1269.551 591.026 C 1265.123 595.716, 1254.975 606.500, 1247 614.991 C 1227.645 635.599, 1200.745 663.984, 1186.340 679 C 1182.382 683.125, 1178.179 687.625, 1176.998 689 C 1175.817 690.375, 1172.055 694.425, 1168.638 698 C 1159.041 708.040, 1127.111 741.830, 1111 758.996 C 1094.334 776.752, 1083.189 788.520, 1070.269 802 C 1065.261 807.225, 1060.303 812.494, 1059.251 813.708 C 1058.199 814.922, 1049.829 823.764, 1040.651 833.357 L 1023.964 850.798 1015.258 841.649 C 995.711 821.107, 992.413 817.629, 990.500 815.543 C 989.400 814.343, 984.217 808.893, 978.982 803.431 C 973.747 797.969, 962.722 786.314, 954.482 777.531 C 946.242 768.747, 935.675 757.549, 931 752.644 C 926.325 747.740, 922.050 743.203, 921.500 742.561 C 920.950 741.920, 916.673 737.368, 911.995 732.447 C 907.318 727.526, 896.520 716.075, 888 707 C 875.289 693.461, 857.175 674.257, 855 672.015 C 854.725 671.732, 850.018 666.775, 844.540 661 C 839.062 655.225, 830.287 645.986, 825.040 640.469 C 819.793 634.952, 812.125 626.829, 808 622.418 C 803.875 618.007, 793.708 607.221, 785.407 598.449 C 777.105 589.677, 764.505 576.324, 757.407 568.775 C 742.084 552.481, 733.327 545.268, 722.499 540.022 C 709.408 533.679, 701.574 531.883, 685 531.427 C 674.659 531.143, 668.668 531.445, 664.113 532.479 M 672.691 558.043 C 652.216 561.483, 635.134 573.770, 625.635 591.891 C 620.753 601.203, 618.686 609.768, 618.609 621 C 618.537 631.612, 619.948 638.560, 624.021 647.641 C 627.882 656.249, 632.630 662.295, 649.041 679.500 C 656.910 687.750, 666.537 697.875, 670.434 702 C 695.214 728.230, 712.831 746.910, 736.453 772 C 751.210 787.675, 764.574 801.845, 766.150 803.488 L 769.015 806.477 814.008 761.492 C 838.753 736.751, 859 716.245, 859 715.923 C 859 715.600, 849.472 705.249, 837.827 692.918 C 826.182 680.588, 810.319 663.772, 802.577 655.549 C 783.629 635.424, 786.390 638.351, 753.787 603.832 C 737.099 586.163, 722.308 571.401, 718.890 569.004 C 705.537 559.637, 687.987 555.473, 672.691 558.043 M 1353.998 558.420 C 1339.899 561.374, 1327.225 568.581, 1317.587 579.125 C 1314.885 582.081, 1309.245 588.100, 1305.055 592.500 C 1300.864 596.900, 1293.198 605, 1288.018 610.500 C 1282.838 616, 1274.527 624.783, 1269.550 630.018 C 1264.572 635.252, 1253.750 646.722, 1245.500 655.505 C 1237.250 664.289, 1222.850 679.539, 1213.500 689.393 C 1204.150 699.248, 1194.740 709.304, 1192.590 711.741 L 1188.679 716.171 1233.587 761.087 C 1258.286 785.790, 1278.818 805.889, 1279.214 805.751 C 1279.610 805.613, 1300.933 783.225, 1326.598 756 C 1352.262 728.775, 1380.756 698.625, 1389.917 689 C 1417.474 660.047, 1419.550 657.527, 1423.935 647.712 C 1431.963 629.740, 1431.598 610.668, 1422.886 593 C 1416.913 580.886, 1405.826 569.852, 1394 564.253 C 1389.325 562.039, 1383.319 559.709, 1380.653 559.075 C 1372.868 557.224, 1361.090 556.934, 1353.998 558.420 M 832.517 780.983 L 787.542 825.966 792.083 830.733 C 794.580 833.355, 804.668 844.050, 814.500 854.500 C 824.331 864.950, 836.679 878.017, 841.938 883.539 C 847.197 889.060, 854.632 896.935, 858.460 901.039 C 862.288 905.142, 869.488 912.792, 874.460 918.037 C 879.432 923.282, 887.100 931.400, 891.500 936.077 C 906.603 952.130, 930.507 977.453, 939.072 986.473 C 953.969 1002.162, 956.869 1005.525, 957.948 1008.363 C 958.600 1010.079, 959 1022.692, 959 1041.565 L 959 1072 1024 1072 L 1089 1072 1089 1041.468 C 1089 1017.454, 1089.300 1010.249, 1090.404 1007.718 C 1091.176 1005.948, 1101.863 993.895, 1114.154 980.932 C 1126.444 967.970, 1142.406 951.095, 1149.624 943.432 C 1156.841 935.770, 1184.626 906.325, 1211.366 878 C 1238.107 849.675, 1259.989 826.273, 1259.993 825.996 C 1259.997 825.719, 1239.736 805.244, 1214.969 780.496 L 1169.938 735.500 1164.807 741 C 1157.039 749.327, 1130.726 777.219, 1120.004 788.492 C 1114.777 793.988, 1110.050 798.982, 1109.500 799.590 C 1093.510 817.267, 1031.759 881.590, 1029.814 882.596 C 1026.505 884.307, 1021.971 884.400, 1018.519 882.827 C 1016.451 881.885, 994.478 859.037, 938.470 799.593 C 937.904 798.992, 932.954 793.772, 927.470 787.993 C 911.704 771.377, 889.730 748.029, 883.948 741.750 C 881.036 738.587, 878.392 736, 878.073 736 C 877.753 736, 857.253 756.242, 832.517 780.983 M 744.282 838.088 C 683.633 849.366, 635.874 895.113, 622.129 955.093 C 618.076 972.779, 617.836 982.084, 618.185 1108.500 C 618.518 1229.131, 618.525 1229.523, 620.688 1237.130 C 627.016 1259.390, 642.772 1278.845, 662.500 1288.757 C 668.038 1291.539, 681.192 1296, 683.858 1296 C 684.699 1296, 685.001 1283.002, 685.004 1246.750 C 685.007 1199.667, 685.093 1197.359, 686.960 1194.299 C 691.049 1187.592, 683.340 1188, 805.950 1188 L 917 1188 917 1135.401 C 917 1088.339, 917.176 1082.432, 918.670 1079.283 C 920.595 1075.227, 925.271 1072.009, 929.250 1072.004 L 932 1072 932 1045.146 L 932 1018.292 929.377 1015.396 C 927.934 1013.803, 923.337 1008.900, 919.161 1004.500 C 909.794 994.630, 900.495 984.767, 864.007 946 C 854.948 936.375, 843.662 924.450, 838.926 919.500 C 834.191 914.550, 826.758 906.694, 822.408 902.043 C 805.916 884.406, 781.677 858.753, 770.528 847.134 C 766.113 842.532, 761.905 838.144, 761.179 837.384 C 759.504 835.630, 756.921 835.738, 744.282 838.088 M 1277.927 846.785 C 1267.527 857.541, 1264.405 860.835, 1237 889.954 C 1217.968 910.177, 1213.464 914.942, 1176.480 954 C 1172.053 958.675, 1165.047 966.100, 1160.910 970.500 C 1143.613 988.898, 1134.175 998.899, 1127.878 1005.500 C 1124.206 1009.350, 1120.031 1013.915, 1118.601 1015.644 L 1116 1018.789 1116 1045.394 L 1116 1072 1118.750 1072.004 C 1122.729 1072.009, 1127.405 1075.227, 1129.330 1079.283 C 1130.824 1082.432, 1131 1088.339, 1131 1135.401 L 1131 1188 1161.750 1188.004 C 1190.828 1188.007, 1192.680 1188.117, 1195.810 1190.026 C 1201.993 1193.795, 1202 1193.857, 1202 1247.604 L 1202 1296.272 1206.375 1295.672 C 1214.453 1294.565, 1229.422 1289.084, 1238.883 1283.770 C 1254.938 1274.753, 1270.519 1258.031, 1279.452 1240.232 C 1288.286 1222.630, 1289.141 1217.147, 1289.936 1173 C 1290.609 1135.610, 1290.619 1135.476, 1293.362 1127.208 C 1300.668 1105.191, 1314.929 1088.763, 1335 1079.245 C 1344.237 1074.864, 1352.728 1072.903, 1366.500 1071.970 C 1373.100 1071.522, 1380.300 1070.627, 1382.500 1069.981 C 1394.671 1066.405, 1409.057 1054.552, 1414.242 1043.829 C 1419.528 1032.897, 1420.002 1029.079, 1419.982 997.540 C 1419.961 962.895, 1418.691 952.118, 1412.412 933.275 C 1395.969 883.938, 1353.407 847.341, 1301.575 837.974 C 1295.566 836.888, 1290.133 836, 1289.502 836 C 1288.870 836, 1283.661 840.853, 1277.927 846.785 M 944 1295 L 944 1491 1024 1491 L 1104 1491 1104 1295 L 1104 1099 1024 1099 L 944 1099 944 1295 M 712 1310.500 L 712 1407 814.500 1407 L 917 1407 917 1310.500 L 917 1214 814.500 1214 L 712 1214 712 1310.500 M 1131 1310.500 L 1131 1407 1153 1407 L 1175 1407 1175 1310.500 L 1175 1214 1153 1214 L 1131 1214 1131 1310.500" stroke="none" fill="#223140" fill-rule="evenodd"/></svg>